HIERARCHY
ROOT Pelvis
{
	OFFSET 0.000000 0.000000 0.000000
	CHANNELS 6 Xposition Yposition Zposition Xrotation Yrotation Zrotation
	JOINT LeftUpLeg_virtual
	{
		OFFSET 0.000000 0.000000 0.000000
		CHANNELS 3 Xrotation Yrotation Zrotation
		JOINT LeftUpLeg
		{
			OFFSET 18.735201 -5.666702 -4.541200
			CHANNELS 3 Xrotation Yrotation Zrotation
			JOINT LeftLeg
			{
				OFFSET -0.021200 -31.938179 0.493100
				CHANNELS 3 Xrotation Yrotation Zrotation
				JOINT LeftFoot
				{
					OFFSET 0.021200 -31.938179 -4.336299
					CHANNELS 3 Xrotation Yrotation Zrotation
					JOINT LeftToeBase
					{
						OFFSET 0.943001 -26.722000 15.023500
						CHANNELS 3 Xrotation Yrotation Zrotation
						End Site
						{
							OFFSET 0 0 0
						}
					}
				}
			}
		}
	}
	JOINT RightUpLeg_virtual
	{
		OFFSET 0.000000 0.000000 0.000000
		CHANNELS 3 Xrotation Yrotation Zrotation
		JOINT RightUpLeg
		{
			OFFSET -18.735201 -5.666702 -4.541200
			CHANNELS 3 Xrotation Yrotation Zrotation
			JOINT RightLeg
			{
				OFFSET 0.018946 -31.938133 0.493100
				CHANNELS 3 Xrotation Yrotation Zrotation
				JOINT RightFoot
				{
					OFFSET -0.018946 -31.938126 -4.336299
					CHANNELS 3 Xrotation Yrotation Zrotation
					JOINT RightToeBase
					{
						OFFSET -0.943001 -26.722004 15.023500
						CHANNELS 3 Xrotation Yrotation Zrotation
						End Site
						{
							OFFSET 0 0 0
						}
					}
				}
			}
		}
	}
	JOINT Hips_virtual
	{
		OFFSET 0.000000 0.000000 0.000000
		CHANNELS 3 Xrotation Yrotation Zrotation
		JOINT Hips
		{
			OFFSET -0.000000 -0.000000 -0.000000
			CHANNELS 3 Xrotation Yrotation Zrotation
			JOINT Spine
			{
				OFFSET 0.000000 10.199997 -0.299500
				CHANNELS 3 Xrotation Yrotation Zrotation
				JOINT Spine1
				{
					OFFSET 0.000000 11.900002 -1.516600
					CHANNELS 3 Xrotation Yrotation Zrotation
					JOINT Spine2
					{
						OFFSET 0.000000 13.600006 -2.842500
						CHANNELS 3 Xrotation Yrotation Zrotation
						JOINT Neck_virtual
						{
							OFFSET 0.000000 0.000000 0.000000
							CHANNELS 3 Xrotation Yrotation Zrotation
							JOINT Neck
							{
								OFFSET 0.000000 9.624100 -2.890100
								CHANNELS 3 Xrotation Yrotation Zrotation
								JOINT Head
								{
									OFFSET 0.000000 14.068802 -1.351900
									CHANNELS 3 Xrotation Yrotation Zrotation
									End Site
									{
										OFFSET 0 0 0
									}
								}
							}
						}
						JOINT LeftShoulder_virtual
						{
							OFFSET 0.000000 0.000000 0.000000
							CHANNELS 3 Xrotation Yrotation Zrotation
							JOINT LeftShoulder
							{
								OFFSET 15.263000 10.923401 -0.547700
								CHANNELS 3 Xrotation Yrotation Zrotation
								JOINT LeftArm
								{
									OFFSET 25.438599 -2.830597 -13.032500
									CHANNELS 3 Xrotation Yrotation Zrotation
									JOINT LeftForeArm
									{
										OFFSET 29.960503 0.000000 0.000000
										CHANNELS 3 Xrotation Yrotation Zrotation
										JOINT LeftHand
										{
											OFFSET 27.849251 0.000000 0.000000
											CHANNELS 3 Xrotation Yrotation Zrotation
											End Site
											{
												OFFSET 0 0 0
											}
										}
									}
								}
							}
						}
						JOINT RightShoulder_virtual
						{
							OFFSET 0.000000 0.000000 0.000000
							CHANNELS 3 Xrotation Yrotation Zrotation
							JOINT RightShoulder
							{
								OFFSET -15.263000 10.923401 -0.547700
								CHANNELS 3 Xrotation Yrotation Zrotation
								JOINT RightArm
								{
									OFFSET -25.438599 -2.830597 -13.032500
									CHANNELS 3 Xrotation Yrotation Zrotation
									JOINT RightForeArm
									{
										OFFSET -29.960503 0.000000 0.000000
										CHANNELS 3 Xrotation Yrotation Zrotation
										JOINT RightHand
										{
											OFFSET -27.849251 0.000000 0.000000
											CHANNELS 3 Xrotation Yrotation Zrotation
											End Site
											{
												OFFSET 0 0 0
											}
										}
									}
								}
							}
						}
					}
				}
			}
		}
	}
}
MOTION
Frames: 6
Frame Time: 0.03333333
1.500053 81.892700 0.718864 0.000000 0.000000 0.000000 21.940323 -3.415263 -26.954667 -88.280953 -15.172191 21.549882 77.318657 -7.479095 10.711426 -13.717172 -2.180937 -5.586817 0.000000 0.000000 0.000000 21.940323 -3.415263 -26.954667 -24.980609 -29.417949 14.192868 28.005644 -11.192103 0.241266 -11.345843 -8.968373 11.168865 0.000000 0.000000 0.000000 21.940323 -3.415263 -26.954667 -0.000001 -0.000001 -0.000001 9.521843 0.975045 -17.588080 6.314208 2.817449 -10.831248 0.000000 0.000000 0.000000 6.113162 2.767234 -10.953749 -1.155724 1.776222 -1.725341 0.000000 0.000000 0.000000 6.113162 2.767234 -10.953749 0.811411 -2.476668 15.977655 -57.177750 -43.418242 -99.391718 0.000010 -55.425073 -0.000009 0.000000 0.000000 0.000000 6.113162 2.767234 -10.953749 -0.221522 -5.715129 2.796615 16.079297 61.091773 -2.286508 -0.000084 72.079601 0.000077 0.000000 0.000000 0.000000 
1.597023 82.077423 0.664658 0.000000 0.000000 0.000000 21.637437 -3.834177 -26.193919 -87.657651 -13.809780 22.133180 76.968398 -7.481145 10.730384 -13.894767 -2.293810 -5.226492 0.000000 0.000000 0.000000 21.637437 -3.834177 -26.193919 -25.554507 -29.052818 13.301865 28.295937 -11.118476 0.363688 -11.231564 -8.662298 11.048587 0.000000 0.000000 0.000000 21.637437 -3.834177 -26.193919 0.000001 -0.000000 -0.000001 9.691086 0.906331 -17.394122 6.445037 2.740807 -10.688251 0.000000 0.000000 0.000000 6.249396 2.693592 -10.811387 -0.351995 1.736450 -1.482254 0.000000 0.000000 0.000000 6.249396 2.693592 -10.811387 0.763384 -2.243206 16.026718 -56.139599 -44.766641 -98.210013 -0.000052 -55.603873 -0.000047 0.000000 0.000000 0.000000 6.249396 2.693592 -10.811387 -0.201834 -4.974898 1.334804 14.246704 61.619795 1.246856 0.000010 71.160148 -0.000012 0.000000 0.000000 0.000000 
1.595406 82.265671 0.651871 0.000000 0.000000 0.000000 21.184855 -4.438226 -25.485242 -86.799369 -12.737467 22.905386 76.770315 -7.558407 10.749045 -14.249561 -2.109567 -5.060845 0.000000 0.000000 0.000000 21.184855 -4.438226 -25.485242 -25.930642 -28.448209 12.689100 28.476630 -11.093107 0.478504 -11.090958 -8.352549 10.860582 0.000000 0.000000 0.000000 21.184855 -4.438226 -25.485242 0.000000 0.000000 0.000000 9.798735 0.857726 -17.228064 6.534462 2.691594 -10.541851 0.000000 0.000000 0.000000 6.345205 2.646780 -10.664557 0.436935 1.727162 -1.237022 0.000000 0.000000 0.000000 6.345205 2.646780 -10.664557 0.658044 -1.924511 15.859510 -54.937926 -45.760013 -97.271524 -0.000024 -55.535998 -0.000008 0.000000 0.000000 0.000000 6.345205 2.646780 -10.664557 -0.134091 -4.148862 0.057192 13.311105 62.319998 3.667559 0.000002 69.803727 0.000004 0.000000 0.000000 0.000000 
1.527287 82.438644 0.620689 0.000000 0.000000 0.000000 20.681765 -5.244326 -24.842590 -85.853545 -11.971851 23.747560 76.696570 -7.693056 10.763375 -14.690072 -1.584667 -5.053662 0.000000 0.000000 0.000000 20.681765 -5.244326 -24.842590 -26.257727 -27.801541 12.334225 28.583604 -11.094922 0.472982 -10.879934 -7.944016 10.658257 0.000000 0.000000 0.000000 20.681765 -5.244326 -24.842590 0.000000 0.000000 0.000000 9.875353 0.789081 -17.050572 6.617680 2.636583 -10.376580 0.000000 0.000000 0.000000 6.436667 2.598923 -10.496850 1.116079 1.750396 -0.998768 0.000000 0.000000 0.000000 6.436667 2.598923 -10.496850 0.446420 -1.456531 15.488668 -53.560923 -46.487388 -96.369434 -0.000001 -55.412054 -0.000024 0.000000 0.000000 0.000000 6.436667 2.598923 -10.496850 -0.015635 -3.206061 -1.084821 12.642372 63.185001 5.530738 0.000031 68.235892 0.000006 0.000000 0.000000 0.000000 
1.436092 82.587814 0.500263 0.000000 0.000000 0.000000 20.270063 -6.112843 -24.230617 -84.945895 -11.470726 24.358821 76.587294 -7.854794 10.775677 -15.021522 -0.673100 -5.160021 0.000000 0.000000 0.000000 20.270063 -6.112843 -24.230617 -26.788289 -27.155828 12.041300 28.752002 -11.122571 0.430050 -10.631441 -7.548132 10.428151 0.000000 0.000000 0.000000 20.270063 -6.112843 -24.230617 -0.000001 0.000000 0.000000 9.990005 0.671758 -16.811105 6.741452 2.549389 -10.177087 0.000000 0.000000 0.000000 6.570286 2.523454 -10.293948 1.652331 1.777589 -0.749000 0.000000 0.000000 0.000000 6.570286 2.523454 -10.293948 0.228740 -0.953292 15.112173 -51.984915 -47.148232 -95.169568 -0.000008 -55.744790 -0.000019 0.000000 0.000000 0.000000 6.570286 2.523454 -10.293948 0.154793 -2.111257 -2.230769 11.059611 63.733533 8.184489 -0.000030 67.046435 0.000058 0.000000 0.000000 0.000000 
1.343105 82.725281 0.267181 0.000000 0.000000 0.000000 20.020335 -6.859502 -23.557814 -84.131005 -11.047129 24.568500 76.258625 -8.142053 10.799443 -15.070978 0.510469 -5.298245 0.000000 0.000000 0.000000 20.020335 -6.859502 -23.557814 -27.730802 -26.233963 11.540691 29.160345 -11.202617 0.647543 -10.449903 -7.486172 10.072818 0.000000 0.000000 0.000000 20.020335 -6.859502 -23.557814 0.000000 0.000001 0.000000 10.225565 0.551262 -16.492704 6.941146 2.461456 -9.947749 0.000000 0.000000 0.000000 6.778291 2.445103 -10.063863 2.039305 1.766223 -0.468251 0.000000 0.000000 0.000000 6.778291 2.445103 -10.063863 0.262487 -0.799319 15.081481 -50.441005 -47.607433 -93.589492 0.000010 -56.735393 -0.000008 0.000000 0.000000 0.000000 6.778291 2.445103 -10.063863 0.338241 -1.107441 -3.097296 8.580123 63.577402 11.646402 -0.000021 66.579619 -0.000013 0.000000 0.000000 0.000000 
